<svg xmlns="http://www.w3.org/2000/svg" viewBox="0 0 59 60.22"><defs><style>.cls-1{fill:#ed1c24;}</style></defs><title>Varlık 21-80</title><g id="katman_2" data-name="katman 2"><g id="Layer_1" data-name="Layer 1"><path class="cls-1" d="M19.05,13l-6.77,3.45a1.48,1.48,0,0,0-.22-.29L7,11.12,17,4.62a1.47,1.47,0,0,0-1.61-2.47L3.92,9.64a1.47,1.47,0,0,0-.24,2.27l5.89,5.94L3.25,21.07A1.48,1.48,0,0,0,4.59,23.7l15.8-8.06A1.47,1.47,0,0,0,19.05,13Zm36.7,7-7-3.55,2-9.78a1.48,1.48,0,0,0-.74-1.59l-9-4.93a1.47,1.47,0,0,0-1.42,2.58l8,4.41-1.63,7.92-6.49-3.31a1.47,1.47,0,0,0-1.34,2.62l16.19,8.26a1.61,1.61,0,0,0,.67.16A1.48,1.48,0,0,0,55.75,20Z"/><path d="M59,38v2.08a1.47,1.47,0,0,1-1.47,1.47H28.05v3.66h.86a1.47,1.47,0,0,1,1.47,1.47V52.6H53.19a1.47,1.47,0,0,1,1.48,1.47v4.68a1.47,1.47,0,0,1-1.48,1.47H5.81a1.47,1.47,0,0,1-1.48-1.47V54.07A1.47,1.47,0,0,1,5.81,52.6H18V46.68a1.47,1.47,0,0,1,1.47-1.47h.86V41.55H1.47A1.47,1.47,0,0,1,0,40.08V38a1.47,1.47,0,0,1,1.47-1.47H3.63a5,5,0,1,1,9.86-1.69C15.12,31.43,19.72,29,25.27,29h18c6.58,0,11.87,3.19,12.87,7.5h1.39A1.47,1.47,0,0,1,59,38Z"/></g></g></svg>