<svg xmlns="http://www.w3.org/2000/svg" viewBox="0 0 59 59"><defs><style>.cls-1{fill:#ed1c24;}</style></defs><title>Varlık 22-80</title><g id="katman_2" data-name="katman 2"><g id="Layer_1" data-name="Layer 1"><path d="M53.1,30a11,11,0,0,1-3.93-.72,11.11,11.11,0,0,1-7.87,0,11.11,11.11,0,0,1-7.87,0,11.09,11.09,0,0,1-7.86,0,11.11,11.11,0,0,1-7.87,0,11.11,11.11,0,0,1-7.87,0A11,11,0,0,1,5.9,30,10.66,10.66,0,0,1,0,28.23v29A1.86,1.86,0,0,0,2,59H57a1.86,1.86,0,0,0,2-1.73v-29A10.66,10.66,0,0,1,53.1,30Zm-2,20.4a1.86,1.86,0,0,1-2,1.73H9.83a1.86,1.86,0,0,1-2-1.73V34.22a1.85,1.85,0,0,1,2-1.72H49.17a1.85,1.85,0,0,1,2,1.72Z"/><path class="cls-1" d="M0,19.59v1.73c0,2.86,2.65,5.18,5.9,5.18a6.35,6.35,0,0,0,3.93-1.32,6.53,6.53,0,0,0,7.87,0,6.53,6.53,0,0,0,7.87,0,6.51,6.51,0,0,0,7.86,0,6.53,6.53,0,0,0,7.87,0,6.53,6.53,0,0,0,7.87,0A6.35,6.35,0,0,0,53.1,26.5c3.25,0,5.9-2.32,5.9-5.18V19.59Z"/><path d="M31.15.79a2.12,2.12,0,0,0-3.3,0L16.63,16.13H42.37Z"/><path d="M1.37,16.13H12L19.88,5.29Z"/><path d="M39.12,5.29l7.93,10.84H57.63Z"/><path d="M17.7,46.61v0a1.82,1.82,0,0,1,1-.9L20.24,45l.08-.07-.17-.21a5.66,5.66,0,0,1-1.1-3.4l-.21-.1-.79-.65-1.26,1.24h-.15l-1.26-1.24-.79.65L13,42a1.07,1.07,0,0,0-.6.51s-1.78,4.18-.81,4.18h6.14Z"/><path d="M13.76,36.77c0,2.59,1.49,4.13,3,4.13,1.25,0,2.93-1.54,3-4.13,0-1.79-.85-2.86-3-2.86S13.74,35,13.76,36.77Z"/><path d="M26.87,45.69a1.8,1.8,0,0,1,1,.92l0,0h1.93l0,0v0a1.82,1.82,0,0,1,1-.9L32.4,45l.08-.07-.17-.21a5.66,5.66,0,0,1-1.1-3.4l-.21-.1-.79-.65L29,41.81H28.8l-1.26-1.24-.79.65-.21.1a5.72,5.72,0,0,1-1.19,3.42l-.13.15.13.11Z"/><path d="M28.87,40.9c1.25,0,2.93-1.54,3-4.13,0-1.79-.85-2.86-3-2.86s-3,1.07-2.95,2.86C26,39.36,27.41,40.9,28.87,40.9Z"/><path d="M45.4,42.48a1.08,1.08,0,0,0-.6-.51l-1.64-.75-.79-.65-1.26,1.24H41L39.7,40.57l-.79.65-.21.1a5.72,5.72,0,0,1-1.19,3.42l-.13.15.13.11,1.52.69a1.8,1.8,0,0,1,1,.92l0,0h6.14C47.18,46.66,45.4,42.48,45.4,42.48Z"/><path d="M38.08,36.77c0,2.59,1.49,4.13,3,4.13,1.25,0,2.93-1.54,3-4.13,0-1.79-.85-2.86-3-2.86S38.06,35,38.08,36.77Z"/><path d="M26.56,46.41l-1.64-.75L24.13,45l-1.26,1.24h-.15L21.46,45l-.79.65L19,46.41a1.07,1.07,0,0,0-.6.51s-1.78,4.18-.81,4.18H28c1,0-.81-4.18-.81-4.18A1.08,1.08,0,0,0,26.56,46.41Z"/><path d="M22.79,38.35c-2.1,0-3,1.07-2.95,2.86,0,2.59,1.49,4.13,2.95,4.13,1.25,0,2.93-1.54,3-4.13C25.77,39.42,24.9,38.35,22.79,38.35Z"/><path d="M38.72,46.41l-1.64-.75L36.29,45,35,46.25h-.15L33.62,45l-.79.65-1.64.75a1.07,1.07,0,0,0-.6.51s-1.78,4.18-.81,4.18H40.13c1,0-.81-4.18-.81-4.18A1.08,1.08,0,0,0,38.72,46.41Z"/><path d="M35,45.34c1.25,0,2.93-1.54,3-4.13,0-1.79-.85-2.86-3-2.86s-3,1.07-3,2.86C32,43.8,33.49,45.34,35,45.34Z"/></g></g></svg>