<svg xmlns="http://www.w3.org/2000/svg" viewBox="0 0 59 59"><defs><style>.cls-1{fill:#ed1c24;}</style></defs><title>Varlık 24-80</title><g id="katman_2" data-name="katman 2"><g id="Layer_1" data-name="Layer 1"><path d="M1.73,13.83H3.46V22.7A5.15,5.15,0,0,0,5,26.37l2.44,2.44a1.71,1.71,0,0,0,2.44,0l4.89-4.89a1.71,1.71,0,0,0,0-2.44L12.31,19a5.2,5.2,0,0,0-5.4-1.18v-4H52.09v4A5.2,5.2,0,0,0,46.69,19l-2.44,2.45a1.71,1.71,0,0,0,0,2.44l4.89,4.89a1.71,1.71,0,0,0,2.44,0L54,26.37a5.15,5.15,0,0,0,1.52-3.67V13.83h1.74A1.8,1.8,0,0,0,59,12.1V1.73A1.72,1.72,0,0,0,57.27,0H1.73A1.72,1.72,0,0,0,0,1.73V12.1A1.82,1.82,0,0,0,1.73,13.83ZM55.54,3.46V6.39L53.59,3.46ZM54,10.37H46.67l3.69-5.53ZM47.13,3.46,43.44,9,39.76,3.46Zm-6.92,6.91H32.84l3.69-5.53ZM33.3,3.46,29.38,9,25.7,3.46Zm-7.14,6.91H18.79l3.68-5.53ZM19.24,3.46,15.56,9,11.87,3.46Zm-6.91,6.91H5L8.64,4.84ZM3.46,3.46h2L3.46,6.39Z"/><path class="cls-1" d="M1.73,59H57.27a1.73,1.73,0,0,0,0-3.46h-9.6l-3.38-3.71-1.48,3.71H39.08L49.6,32.7a5.2,5.2,0,0,1-2.91-1.44L41.8,26.37c-.1-.1-.18-.22-.27-.33l-30.2,29.5H1.73a1.73,1.73,0,0,0,0,3.46Z"/><path d="M1.73,45.17H3.46V46.9a1.73,1.73,0,1,0,3.45,0V45.17H8.64a1.73,1.73,0,0,0,0-3.46H6.91V40a1.73,1.73,0,1,0-3.45,0v1.72H1.73a1.73,1.73,0,1,0,0,3.46Z"/><path d="M53.81,52.09a1.73,1.73,0,0,0,1.73-1.73V48.63h1.73a1.73,1.73,0,0,0,0-3.46H55.54V43.44a1.73,1.73,0,1,0-3.45,0v1.73H50.36a1.73,1.73,0,1,0,0,3.46h1.73v1.73A1.73,1.73,0,0,0,53.81,52.09Z"/><path class="cls-1" d="M12.31,31.26A5.2,5.2,0,0,1,9.4,32.7l6.47,12.72,11.18-12.3L17.47,26c-.09.11-.17.23-.27.33Z"/></g></g></svg>