<svg xmlns="http://www.w3.org/2000/svg" viewBox="0 0 59 59"><defs><style>.cls-1{fill:#ed1c24;}</style></defs><title>Varlık 23-80</title><g id="katman_2" data-name="katman 2"><g id="Layer_1" data-name="Layer 1"><path d="M45,14.52a7.13,7.13,0,0,0,7-7.26,7,7,0,1,0-14,0A7.14,7.14,0,0,0,45,14.52Z"/><path d="M14,14.52a7.13,7.13,0,0,0,7-7.26A7.14,7.14,0,0,0,14,0,7.13,7.13,0,0,0,7,7.26,7.13,7.13,0,0,0,14,14.52Z"/><path class="cls-1" d="M56.73,35.58h-21a7.15,7.15,0,0,1-12.5,0h-21A2.32,2.32,0,0,0,0,37.94V47.4a2.31,2.31,0,0,0,2.27,2.36H16.44V48.9a7.48,7.48,0,0,1,4.94-7.13l0,0,2-.65a1.52,1.52,0,0,1,1.07.07l5,2.26,5-2.26a1.47,1.47,0,0,1,1.07-.07l2,.65,0,0a7.48,7.48,0,0,1,4.94,7.13v.86H56.73A2.31,2.31,0,0,0,59,47.4V37.94A2.32,2.32,0,0,0,56.73,35.58Z"/><path d="M22.25,32.6c0-.31-.05-.62-.05-.94a7.56,7.56,0,0,1,5.37-7.32v-.22A6.38,6.38,0,0,0,23.34,18h0l-3.69-.64a.62.62,0,0,0-.76.4l-4.19,12a.75.75,0,0,1-1.43,0l-4.19-12a.63.63,0,0,0-.58-.43c-.06,0-3.88.67-3.88.67A6.41,6.41,0,0,0,.36,24.15V33a5,5,0,0,1,1.91-.38Z"/><path d="M25.29,31.66a4.21,4.21,0,1,0,4.21-4.38A4.3,4.3,0,0,0,25.29,31.66Z"/><path d="M36.66,44.82l-1.47-.47-5.07,2.3a1.49,1.49,0,0,1-1.24,0l-5.07-2.3-1.47.47a4.29,4.29,0,0,0-2.81,4.08v8.17A1.9,1.9,0,0,0,21.39,59H37.61a1.9,1.9,0,0,0,1.86-1.93V48.9a4.29,4.29,0,0,0-2.81-4.08Z"/><path d="M36.8,31.66c0,.32,0,.63,0,.94h20a5,5,0,0,1,1.91.38V24.12A6.38,6.38,0,0,0,54.41,18h0l-3.7-.64a.62.62,0,0,0-.76.4l-4.19,12a.75.75,0,0,1-1.42,0l-4.19-12a.64.64,0,0,0-.58-.43c-.06,0-3.88.67-3.88.67a6.41,6.41,0,0,0-4.25,6.11v.19a7.56,7.56,0,0,1,5.37,7.32Z"/><path class="cls-1" d="M15.54,17.05a.89.89,0,0,0-.66-.28H13a.88.88,0,0,0-.65.28.93.93,0,0,0-.12,1.05l1,1.54-.46,4,.9,2.51a.27.27,0,0,0,.52,0l.91-2.51-.46-4,1-1.54a.91.91,0,0,0-.11-1.05Z"/><path class="cls-1" d="M46.62,17.05a.91.91,0,0,0-.66-.28H44.12a.88.88,0,0,0-.77,1.33l1,1.54-.46,4,.91,2.51a.27.27,0,0,0,.52,0l.91-2.51-.47-4,1-1.54A.94.94,0,0,0,46.62,17.05Z"/></g></g></svg>