<svg xmlns="http://www.w3.org/2000/svg" viewBox="0 0 59 57.78"><defs><style>.cls-1{fill:#ed1c24;}</style></defs><title>Varlık 26-80</title><g id="katman_2" data-name="katman 2"><g id="Layer_1" data-name="Layer 1"><path class="cls-1" d="M12,38.66a3.91,3.91,0,1,0,3.91,3.91A3.92,3.92,0,0,0,12,38.66Z"/><path class="cls-1" d="M29.24,38.66a3.91,3.91,0,1,0,3.91,3.91A3.92,3.92,0,0,0,29.24,38.66Z"/><path d="M40.19,27.42a4.53,4.53,0,0,0-.74-.05H5.26A5.27,5.27,0,0,0,0,32.63V52.52a5.27,5.27,0,0,0,5.26,5.26H39.45a6,6,0,0,0,.74-.05,1.18,1.18,0,0,0,1-1.16v-28A1.17,1.17,0,0,0,40.19,27.42ZM29.24,50a7.42,7.42,0,0,1-6.3-11.33H18.25A7.41,7.41,0,1,1,12,35.16H29.24a7.42,7.42,0,1,1,0,14.83Z"/><path d="M58.31,31.24a1.76,1.76,0,0,0-1.52-.3L44.71,34.23V50.92l12.08,3.29a1.76,1.76,0,0,0,.46.06,1.78,1.78,0,0,0,1.06-.36,1.74,1.74,0,0,0,.69-1.4V32.63A1.72,1.72,0,0,0,58.31,31.24Z"/><path class="cls-1" d="M13,20.78a1.75,1.75,0,1,0,2.47,2.48,7.22,7.22,0,0,1,10.21,0,1.78,1.78,0,0,0,1.24.51,1.75,1.75,0,0,0,1.24-3A10.71,10.71,0,0,0,13,20.78Z"/><path class="cls-1" d="M30.91,16.45a1.75,1.75,0,0,0,1.24-3,16.35,16.35,0,0,0-23.1,0,1.75,1.75,0,0,0,2.48,2.48,12.84,12.84,0,0,1,18.14,0A1.75,1.75,0,0,0,30.91,16.45Z"/><path class="cls-1" d="M6.87,9.19a19.43,19.43,0,0,1,27.46,0,1.75,1.75,0,1,0,2.48-2.47,22.91,22.91,0,0,0-32.42,0A1.75,1.75,0,0,0,6.87,9.19Z"/></g></g></svg>