<svg xmlns="http://www.w3.org/2000/svg" viewBox="0 0 59 59"><defs><style>.cls-1{fill:#ed1c24;}</style></defs><title>Varlık 25-80</title><g id="katman_2" data-name="katman 2"><g id="Layer_1" data-name="Layer 1"><path d="M50,4.81h3.46V7.28H50Z"/><path class="cls-1" d="M46.11,0h11.3V3H46.11Z"/><path d="M50.23,42.37H54V59H50.23Z"/><path d="M5.58,4.81H9V7.28H5.58Z"/><path class="cls-1" d="M1.59,0h11.3V3H1.59Z"/><path d="M27.77,4.81h3.46V7.28H27.77Z"/><path d="M5.05,42.37H8.77V59H5.05Z"/><path class="cls-1" d="M27.64,33h1.54l1.26-4.16h-2.8Z"/><path class="cls-1" d="M23.79,0H35.21V3H23.79Z"/><path d="M46.38,25.16V23.33a.86.86,0,0,0-.78-.84l-1.48-.16v3.84L45.6,26A.86.86,0,0,0,46.38,25.16Z"/><path d="M0,40.55H59V9.1H0Zm56.34-16a.92.92,0,0,1-.93.91H50.23a.91.91,0,1,1,0-1.82h5.18A.92.92,0,0,1,56.34,24.56Zm-6.66-4.23,3.78-.95A.94.94,0,0,1,54.6,20a.92.92,0,0,1-.67,1.11l-3.78.95a1,1,0,0,1-.9-.24A.9.9,0,0,1,49,21,.91.91,0,0,1,49.68,20.33ZM49,27.43a.94.94,0,0,1,1.14-.66l3.78.95a.93.93,0,0,1,.67.63.89.89,0,0,1-.24.89,1,1,0,0,1-.9.24l-3.78-.95A.91.91,0,0,1,49,27.43ZM24.85,21.69a1.78,1.78,0,0,1,1.77-1.81h5.5l10.81-3.7a.9.9,0,0,1,1.19.87V20.5l1.68.18a2.69,2.69,0,0,1,2.44,2.65v1.83a2.7,2.7,0,0,1-2.44,2.66L44.12,28v3.68a.92.92,0,0,1-.36.75.86.86,0,0,1-.51.16.8.8,0,0,1-.31,0L32.35,28.92l-1.58,5.24a1,1,0,0,1-.89.67H26.75a1,1,0,0,1-1-.94V28.64a1.82,1.82,0,0,1-.93-1.6ZM3.59,19.88H8.5a.91.91,0,1,1,0,1.82H3.59a.91.91,0,1,1,0-1.82Zm0,3.9H19.93a.91.91,0,1,1,0,1.82H3.59a.91.91,0,1,1,0-1.82Zm0,3.64H19.93a.91.91,0,1,1,0,1.82H3.59a.91.91,0,1,1,0-1.82Zm0,3.77H19.93a.91.91,0,1,1,0,1.82H3.59a.91.91,0,1,1,0-1.82Z"/><path class="cls-1" d="M26.71,21.7h4.65V27H26.71Z"/><path class="cls-1" d="M42.26,27.19V18.33l-9,3.13v5.81l9,3.13Z"/></g></g></svg>