<svg xmlns="http://www.w3.org/2000/svg" viewBox="0 0 36.26 38"><defs><style>.cls-1{fill:#e6e6e6;}.cls-2{fill:#48b2ce;}.cls-3{fill:#f5f5fa;}</style></defs><title>Varlık 1-80</title><g id="katman_2" data-name="katman 2"><g id="katman_1-2" data-name="katman 1"><g id="Layer_1" data-name="Layer 1"><path class="cls-1" d="M0,19C0,8.52,8.12,0,18.13,0S36.26,8.5,36.26,19,28.14,38,18.13,38,0,29.48,0,19Z"/><ellipse class="cls-2" cx="18.13" cy="19" rx="14.93" ry="15.62"/><g id="bQ30Dp.tif"><path class="cls-3" d="M11.27,17.86V16.79a1.63,1.63,0,0,0,.07-.3,7.33,7.33,0,0,1,5.3-6.4l.89-.2h1.36l.79.18a7.54,7.54,0,0,1,4.89,9.66,19.29,19.29,0,0,1-5.14,7.69,4.6,4.6,0,0,1-.67.49.91.91,0,0,1-1,0,7.78,7.78,0,0,1-1-.7,18.52,18.52,0,0,1-4.82-7A21,21,0,0,1,11.27,17.86Zm3.57-3.4A4.31,4.31,0,0,0,15.12,20a4.13,4.13,0,0,0,5.65.4,4.42,4.42,0,0,0,.85-5.73,3.76,3.76,0,0,0-4.35-1.79A1.78,1.78,0,0,1,18,15a1.67,1.67,0,0,1-1.62,1.12c-.82-.06-1.36-.6-1.58-1.61Z"/></g></g></g></g></svg>