<svg xmlns="http://www.w3.org/2000/svg" viewBox="0 0 36.25 37.95"><defs><style>.cls-1{fill:#e6e6e6;}.cls-2{fill:red;}.cls-3{fill:#f1f2f2;}</style></defs><title>Varlık 22-80</title><g id="katman_2" data-name="katman 2"><g id="Layer_1" data-name="Layer 1"><path class="cls-1" d="M0,19C0,8.5,8.12,0,18.13,0S36.25,8.5,36.25,19,28.14,38,18.13,38,0,29.45,0,19Z"/><ellipse class="cls-2" cx="18.13" cy="18.97" rx="14.93" ry="15.62"/><path class="cls-3" d="M27.23,14.87h0a1.34,1.34,0,0,0-1.37,0l-2,1.15V14.94a1.1,1.1,0,0,0-1.09-1.1H9c-.39,0-.79.12-.86.51a.7.7,0,0,0,.06.43l3.48,7a.21.21,0,0,1,0,.19l-1,2.18-.34.71a.57.57,0,0,0,.49.84h12a1.09,1.09,0,0,0,1.09-1.1V23.54l2,1.14a1.37,1.37,0,0,0,2.05-1.18V16.06A1.35,1.35,0,0,0,27.23,14.87ZM9.64,15h5.53l-.06.12-2.5,5.19a.21.21,0,0,1-.38,0h0ZM22.77,24.6h-11l.11-.23L16.49,15h6.28Zm4-1.12a.28.28,0,0,1-.11.23.24.24,0,0,1-.28,0l-2.54-1.46v-5l2.53-1.46a.31.31,0,0,1,.25,0,.26.26,0,0,1,.15.24Z"/></g></g></svg>