<svg xmlns="http://www.w3.org/2000/svg" viewBox="0 0 36.25 38"><defs><style>.cls-1{fill:#e6e6e6;}.cls-2{fill:red;}.cls-3{fill:#f1f2f2;fill-rule:evenodd;}</style></defs><title>Varlık 2-80</title><g id="katman_2" data-name="katman 2"><g id="katman_1-2" data-name="katman 1"><g id="Layer_1" data-name="Layer 1"><path class="cls-1" d="M0,19C0,8.52,8.11,0,18.12,0S36.25,8.5,36.25,19,28.13,38,18.12,38,0,29.48,0,19Z"/><ellipse class="cls-2" cx="18.12" cy="19" rx="14.93" ry="15.62"/><path class="cls-3" d="M27,15.22a2.74,2.74,0,0,0-2.66-2.79H11.87A2.73,2.73,0,0,0,9.2,15.22h0v7.49a2.73,2.73,0,0,0,2.67,2.79H24.38A2.74,2.74,0,0,0,27,22.71Zm-10.7,6.91v-7l5.09,3.52Z"/></g></g></g></svg>