<svg xmlns="http://www.w3.org/2000/svg" xmlns:xlink="http://www.w3.org/1999/xlink" viewBox="0 0 99.02 58.94"><defs><style>.cls-1{fill:none;}.cls-2{clip-path:url(#clip-path);}.cls-3{fill:#ed1c24;}</style><clipPath id="clip-path"><rect class="cls-1" x="0.02" width="99" height="58.97"/></clipPath></defs><title>Varlık 41-80</title><g id="katman_2" data-name="katman 2"><g id="Layer_1" data-name="Layer 1"><g class="cls-2"><path class="cls-3" d="M99,54.6c0-.2,0-.39,0-.59s0-.39,0-.59V53h0v0l0-.24c0-.33-.06-.66-.08-1l0-.25,0-.32c0-.22,0-.43-.07-.65l-.06-.64a3.11,3.11,0,0,1,0-.32c0-.1,0-.19,0-.29-.12-.78-.23-1.54-.38-2.28q-.1-.56-.21-1.08l-.24-1c-.15-.67-.33-1.29-.48-1.87l-.12-.43-.12-.4-.23-.74c-.08-.23-.14-.45-.21-.65l-.2-.55c-.08-.24-.15-.45-.21-.61a.53.53,0,0,0-.63-.3L78.8,43.65a.46.46,0,0,0-.37.53c0,.09,0,.19.07.3s0,.24.07.38.05.29.08.45.06.32.09.5,0,.18,0,.28,0,.19,0,.29c0,.39.11.82.15,1.27l.06.69c0,.24,0,.49,0,.73,0,.49,0,1,0,1.52V51c0,.11,0,.22,0,.34s0,.22,0,.34v.17l0,.24c0,.33,0,.66,0,1v.28h0v-.15h0v.15c0,.13,0,.25,0,.38s0,.26,0,.39,0,.25,0,.37-.06.5-.1.74l-.12.71-.13.68c0,.22-.08.43-.13.64s-.09.4-.13.59-.1.37-.14.54a2.33,2.33,0,0,1-.07.25l-.06.2,0,.11H98.42a.49.49,0,0,0,.52-.44h0c0-.34,0-.69,0-1.06s0-.73,0-1.1,0-.76,0-1.15c0-.19,0-.39,0-.58Z"/></g><path class="cls-3" d="M93.68,35.14a.45.45,0,0,0,.27-.63l-.19-.37c-.07-.14-.15-.28-.24-.44L93.17,33c-.13-.23-.26-.48-.41-.74l-.21-.37c-.08-.12-.15-.25-.23-.38l-.49-.81-.55-.85L91,29.45c-.1-.15-.21-.29-.31-.45l-.64-.91c-.45-.61-.91-1.25-1.41-1.87-.13-.15-.25-.31-.38-.47l-.19-.23-.19-.23-.79-.93-.82-.9L85.86,23l-.42-.43L85,22.15q-.21-.22-.42-.42l-.84-.81c-.28-.27-.56-.52-.84-.77s-.54-.49-.81-.71l-.78-.67-.75-.6-.7-.55-.64-.48-.56-.42-.49-.34L77.65,16a.55.55,0,0,0-.71.08l-9,9.84a.44.44,0,0,0,0,.63l.26.23.31.28.35.34.41.39.43.44c.15.15.31.3.47.48l.48.52c.17.18.33.37.5.57s.34.38.51.59l.5.63a3.92,3.92,0,0,1,.25.32l.25.33L73,32l.24.34.48.68c.15.24.3.47.46.7l.11.18.11.17.21.36c.29.46.54.93.79,1.38l.35.67.17.33.15.32.29.62.26.59.12.27c0,.09.08.18.1.26s.11.29.17.43.1.26.14.38l.17.44.14.4a.54.54,0,0,0,.68.28Z"/><path d="M47.93,17.56l.45.05.52.09.6.09.57.11L55.74,7.4l-.83-.12-.55-.08-.55-.06-1-.11-1-.07c-.31,0-.61-.06-.89-.07l-.81,0-.71,0H48.13a.49.49,0,0,0-.52.44L47.09,17a.48.48,0,0,0,.44.48l.4,0Z"/><path d="M63.17,22.94c.15.1.29.2.43.28l.38.25.2.14.2.13.37.25a.55.55,0,0,0,.74-.11l7.4-10.21a.43.43,0,0,0-.17-.66l-.4-.21-.22-.11-.26-.14-.68-.34-.78-.38-.82-.37c-.28-.13-.57-.27-.89-.4l-1-.4c-.32-.14-.67-.27-1-.4S66,10,65.59,9.86l-.28-.1-3.2,12.55.51.3.55.33Z"/><path d="M38,17.51l.43-.05.41,0,.8-.08.74,0,.35,0,.33,0h.57l.5,0h1a.49.49,0,0,0,.51-.5l-.67-9.2a.5.5,0,0,0-.57-.44l-.46.06-.53.06-.74.1-.83.11-.44.07-.45.08L38,7.73l-1,.21-.52.11-.53.13-1.1.26-1.12.31-.57.15-.57.18L32,9.26l-.58.18-1.14.4c-.38.13-.75.28-1.13.42l-.55.22-.55.23-.54.23-.54.23-1,.47c-.34.15-.66.32-1,.48s-.64.31-.94.48l-.86.46c-.29.15-.55.31-.8.46l-.73.42-.65.4-.56.35-.47.31-.49.33a.44.44,0,0,0-.12.64l4.22,5.62a.55.55,0,0,0,.68.14l.38-.19.41-.21.5-.24.57-.27.63-.27.7-.3.74-.3.8-.29c.28-.1.55-.21.84-.3l.87-.29.45-.13.45-.13.46-.14.46-.12.93-.23.94-.21.47-.1.47-.09.46-.09.46-.07.9-.14.87-.11Z"/><path d="M9.19,24.77l-.33.43-.34.43-.32.44c-.22.3-.44.59-.65.89s-.41.6-.61.91l-.15.22-.15.23-.28.45c-.39.6-.73,1.22-1.08,1.8-.16.3-.31.59-.47.87s-.15.29-.22.43-.14.28-.21.42l-.4.8c-.12.26-.24.51-.35.76s-.22.47-.31.7l-.26.63c-.09.2-.16.39-.23.56s-.13.34-.19.48l-.18.49a.45.45,0,0,0,.31.58L6.7,38.66a.53.53,0,0,0,.64-.24L7.55,38c.06-.13.14-.26.21-.41L8,37.16l.3-.54c.11-.19.24-.38.36-.58l.39-.64.45-.66.23-.35c.08-.11.16-.23.25-.34s.33-.48.51-.72c.37-.47.73-1,1.14-1.45l.3-.37.15-.18.16-.18.63-.72c.21-.24.44-.47.65-.71l.33-.34.34-.34.33-.33.33-.33.67-.62c.22-.21.45-.4.67-.59s.42-.38.64-.56l.62-.51.59-.46.55-.42.48-.35.43-.3.21-.15.2-.14.37-.25a.44.44,0,0,0,.08-.67l-4.48-4.75a.54.54,0,0,0-.74,0l-.34.29-.18.16-.2.18-.5.45-.56.52-.58.57c-.2.2-.42.4-.62.62l-.65.68-.67.72-.67.77-.68.82c-.12.13-.23.27-.34.41Z"/><path d="M1.06,41.41c0,.12-.06.26-.09.41s-.07.3-.11.47-.07.38-.11.59-.09.44-.13.68-.05.24-.07.37l-.06.37C.42,44.82.32,45.37.27,46c0,.3-.07.6-.1.91s-.05.63-.07,1C0,48.46,0,49.13,0,49.8v2.05c0,.34,0,.68.05,1v.34l0,.18c0,.16,0,.33,0,.49s0,.32,0,.48,0,.34.05.5,0,.33.05.5l0,.24,0,.24c0,.32.09.63.13.93s.11.6.16.89.1.57.15.84l0,.06a.5.5,0,0,0,.5.38H2.69a.48.48,0,0,0,.51-.49c0-.07,0-.14,0-.22,0-.26,0-.52,0-.8l0-.85V55.46a1.55,1.55,0,0,0,0-.22c0-.15,0-.3,0-.45s0-.31,0-.46l0-.49c0-.16,0-.33,0-.49v-.18h0v0l0-.24c0-.32,0-.64.08-1l0-.23,0-.24L3.41,51l.06-.47,0-.23,0-.24c.11-.62.2-1.23.33-1.81.06-.29.11-.58.18-.86s.13-.55.2-.82c.12-.53.28-1,.41-1.48l.09-.34c0-.11.07-.21.1-.31L5,43.85c.06-.18.11-.35.17-.51l.17-.45.14-.4a.45.45,0,0,0-.35-.59l-3.48-.84a.51.51,0,0,0-.63.35Z"/><path d="M40.37,57.71a8.67,8.67,0,0,0,3.5.74,8.12,8.12,0,0,0,7.19-4.06,6.82,6.82,0,0,0,.61-1.56l8.09-31.77L62.84,9l1.9-7.49A1.22,1.22,0,0,0,63.43,0a1.28,1.28,0,0,0-1.16.67L58.39,7.86,52.66,18.47,36.7,48c-1.94,3.59-.3,7.92,3.67,9.68Zm3.8-10.23A3.56,3.56,0,1,1,40.25,51a3.75,3.75,0,0,1,3.92-3.54Z"/></g></g></svg>