<svg xmlns="http://www.w3.org/2000/svg" viewBox="0 0 122 63.21"><defs><style>.cls-1{fill:none;}.cls-2{fill:#999;}</style></defs><title>Varlık 21-80</title><g id="katman_2" data-name="katman 2"><g id="Layer_1" data-name="Layer 1"><path class="cls-1" d="M42.08,21h0L33.61,3.63h0L42.08,21Z"/><polygon class="cls-1" points="56.01 3.63 56 3.63 40.87 34.39 40.5 35.14 76.49 35.14 76.49 3.63 56.07 3.63 56.01 3.63"/><path class="cls-1" d="M89.18,6.46a1,1,0,0,0-.83.06l-8.24,4.76V27.49l8.28,4.78a.83.83,0,0,0,.92,0,1,1,0,0,0,.36-.75V7.24A.85.85,0,0,0,89.18,6.46Z"/><path class="cls-2" d="M91.05,3.36h0a4.42,4.42,0,0,0-4.47,0L80.11,7.1V3.6A3.59,3.59,0,0,0,76.52,0h-45C30.28.09,29,.4,28.74,1.66A2.26,2.26,0,0,0,29,3.08L40.32,26a.72.72,0,0,1,0,.61L36.9,33.68,35.78,36a1.85,1.85,0,0,0,1.61,2.73H76.52a3.59,3.59,0,0,0,3.59-3.59v-3.5l6.47,3.74a4.51,4.51,0,0,0,4.47,0,4.42,4.42,0,0,0,2.24-3.88V7.24A4.42,4.42,0,0,0,91.05,3.36Zm-57.44.27H51.69l-.2.39L43.32,21a.69.69,0,0,1-1.24,0h0ZM76.49,35.14h-36l.37-.75L56,3.63H76.49Zm13.18-3.66a1,1,0,0,1-.36.75.83.83,0,0,1-.92,0l-8.28-4.78V11.28l8.24-4.76a1,1,0,0,1,.83-.06.85.85,0,0,1,.49.78Z"/><path class="cls-2" d="M5.72,57.31.17,50c-.66-.88.79-1.69,1.38-.81l5,6.78,5-6.8c.55-.84,1.91-.13,1.31.79l-5.5,7.39v4.91a.79.79,0,0,1-.81.81.76.76,0,0,1-.81-.81Z"/><path class="cls-2" d="M15.39,59.26l-1.78,3.47c-.39.81-1.84.24-1.44-.64L18.79,49a.79.79,0,0,1,.72-.42.77.77,0,0,1,.7.42l6.61,13c.57.95-1.06,1.5-1.47.64l-1.71-3.4ZM19.51,51l-3.46,6.91H23Z"/><path class="cls-2" d="M31.8,57.31,26.25,50c-.66-.88.79-1.69,1.38-.81l4.95,6.78,5-6.8c.55-.84,1.91-.13,1.31.79l-5.5,7.39v4.91a.79.79,0,0,1-.81.81.76.76,0,0,1-.81-.81Z"/><path class="cls-2" d="M41.1,49.28a.82.82,0,0,1,1.64,0V62.4a.82.82,0,0,1-1.64,0Z"/><path class="cls-2" d="M56,49.52c0-.92,1.67-1,1.67,0V62.11c0,1.1-1.51,1.21-2,.44l-8.2-11,.17,3v7.74a.84.84,0,0,1-1.67,0V49.76a.94.94,0,0,1,1.78-.46l8.44,11.3L56,57.29Z"/><path class="cls-2" d="M61.67,62.94a1,1,0,0,1-1-.94V49.92a1,1,0,0,1,1-.92h4.78C70.81,49,73,52.48,73,56s-2.17,7-6.53,7Zm.57-1.42h4.21c3.29,0,4.93-2.79,4.93-5.55s-1.64-5.57-4.93-5.57H62.24Z"/><path class="cls-2" d="M77.26,59.26l-1.77,3.47c-.4.81-1.85.24-1.45-.64L80.66,49a.82.82,0,0,1,1.43,0l6.6,13c.57.95-1,1.5-1.47.64l-1.71-3.4ZM81.39,51l-3.47,6.91h6.91Z"/><path class="cls-2" d="M94.75,61.48A1.44,1.44,0,0,1,93.21,63a1.5,1.5,0,1,1,0-3A1.44,1.44,0,0,1,94.75,61.48Z"/><path class="cls-2" d="M105.64,49a.76.76,0,1,1,0,1.52h-4.9c0,3.95,0,8,0,11.91a.82.82,0,0,1-.84.81.78.78,0,0,1-.79-.81V50.49H94.27a.76.76,0,1,1,0-1.52Z"/><path class="cls-2" d="M107.76,49.87c-.41-.94,1.1-1.55,1.54-.61l5.63,11.23,5.51-11.19a.81.81,0,0,1,1.51.57l-6.31,12.79a.79.79,0,0,1-1.47-.07Z"/></g></g></svg>