<svg xmlns="http://www.w3.org/2000/svg" viewBox="0 0 65.55 59.43"><defs><style>.cls-1{fill:#ed1c24;}</style></defs><title>Varlık 5</title><g id="katman_2" data-name="katman 2"><g id="Layer_1" data-name="Layer 1"><path class="cls-1" d="M32.61,12.77A5.5,5.5,0,0,0,38.1,7.28V5.46a5.49,5.49,0,0,0-11,0V7.28A5.49,5.49,0,0,0,32.61,12.77Z"/><path class="cls-1" d="M10.82,43.9a5.5,5.5,0,0,0,5.49-5.49V36.59a5.49,5.49,0,1,0-11,0v1.82A5.51,5.51,0,0,0,10.82,43.9Z"/><path class="cls-1" d="M54.41,43.9a5.49,5.49,0,0,0,5.48-5.49V36.59a5.49,5.49,0,1,0-11,0v1.82A5.5,5.5,0,0,0,54.41,43.9Z"/><path d="M59.88,44H58.73a.94.94,0,0,0-.88.62l-1.1,2.94L55.86,46a1,1,0,0,0-.82-.49H54a.94.94,0,0,0-.84.52l-.72,1.39-1-2.76a1,1,0,0,0-.9-.64H49.25a5.66,5.66,0,0,0-5.41,4l-6.55-4.8a4.84,4.84,0,0,0-3.57-6.48V28.3h9.06a.94.94,0,0,0,.95-.95v-8.3a5.66,5.66,0,0,0-5.64-6.19H36.94a.93.93,0,0,0-.88.61l-1.11,3-.88-1.58a1,1,0,0,0-.83-.49H32.16a.94.94,0,0,0-.84.52l-.72,1.39-1-2.76a1,1,0,0,0-.9-.64H27.46a5.66,5.66,0,0,0-5.64,6.19v8.31a.94.94,0,0,0,.94.94h9.07v8.39a4.84,4.84,0,0,0-3.58,6.48L21.71,48a5.67,5.67,0,0,0-5.41-4H15.15a1,1,0,0,0-.89.62l-1.1,2.94L12.28,46a1,1,0,0,0-.83-.49H10.37a.94.94,0,0,0-.84.52l-.72,1.39-1-2.76A1,1,0,0,0,7,44H5.67a5.65,5.65,0,0,0-4.19,1.85A5.71,5.71,0,0,0,0,50.18v8.31a1,1,0,0,0,1,.94H21a1,1,0,0,0,1-1V50.15l7.33-5.38a4.82,4.82,0,0,0,7,0l7.33,5.38v8.34a.94.94,0,0,0,1,.94h20a.94.94,0,0,0,1-1v-8.3A5.66,5.66,0,0,0,59.88,44Z"/></g></g></svg>