<svg xmlns="http://www.w3.org/2000/svg" viewBox="0 0 52.26 64.55"><defs><style>.cls-1{fill:#ed1c24;}</style></defs><title>Varlık 40-80</title><g id="katman_2" data-name="katman 2"><g id="Layer_1" data-name="Layer 1"><path d="M31.63,40.63a2.1,2.1,0,0,0-2.11,1.52,1.85,1.85,0,0,0,1.29,2.12,2.31,2.31,0,0,0,2.61-.69,1.74,1.74,0,0,0-.27-2.4A2.32,2.32,0,0,0,31.63,40.63Z"/><path class="cls-1" d="M21.68,39.69a3.1,3.1,0,0,0-3.11,2.25,2.75,2.75,0,0,0,1.9,3.13,3.42,3.42,0,0,0,3.85-1,2.55,2.55,0,0,0-.39-3.53A3.39,3.39,0,0,0,21.68,39.69Z"/><path class="cls-1" d="M31.67,48.49a3.1,3.1,0,0,0-3.1,2.26,2.74,2.74,0,0,0,1.89,3.12,3.43,3.43,0,0,0,3.86-1,2.55,2.55,0,0,0-.4-3.53A3.44,3.44,0,0,0,31.67,48.49Z"/><path class="cls-1" d="M33.87,35.69a2.56,2.56,0,0,0,0-3.95,3.47,3.47,0,0,0-4.49,0,2.57,2.57,0,0,0,0,3.95A3.48,3.48,0,0,0,33.87,35.69Z"/><path d="M15.25,43.49c0-7.83,6-14.48,14-16.67V21.4s0,0,0-.08A4.53,4.53,0,0,0,28,17.72a5.79,5.79,0,0,0-3.75-1.78l-5,0-3.8,5.83a1,1,0,0,1-.83.42,1,1,0,0,1-.81-.44l-3.6-5.82H5.57C2.49,15.9,0,18.11,0,20.82,0,21,0,34.82,0,35a2.38,2.38,0,0,0,2.52,2.22h0a2.43,2.43,0,0,0,2.49-2.32A.91.91,0,0,1,6,34H6a.92.92,0,0,1,.94.85l0,1.21L7.9,63.74a1,1,0,0,0,1,.81H20.47a1,1,0,0,0,1-.8l0-7.55A16.53,16.53,0,0,1,15.25,43.49Z"/><path class="cls-1" d="M43.87,44.5a2.56,2.56,0,0,0,0-4,3.47,3.47,0,0,0-4.49,0,2.56,2.56,0,0,0,0,4A3.49,3.49,0,0,0,43.87,44.5Z"/><path d="M9.13,6.91c0,2.59,2.39,4.7,5.34,4.7S19.8,9.5,19.8,6.91V4.7c0-2.59-2.45-4.7-5.38-4.7a5.66,5.66,0,0,0-3.75,1.38A4.41,4.41,0,0,0,9.13,4.7Z"/><path d="M40.09,55.71H37.66c6-2.12,10.26-7.26,10.26-13.29,0-7.84-7.18-14.22-16.09-14.28S15.64,34.37,15.51,42.21,22.45,56.52,31.35,56.7a.86.86,0,0,0,.81.51h7.93A14.07,14.07,0,0,1,50.73,61.8a.93.93,0,0,0,1.2.13.69.69,0,0,0,.15-1A15.92,15.92,0,0,0,40.09,55.71Zm-15-10.19a5.35,5.35,0,0,1-6.9,0,4,4,0,0,1,0-6.08,5.38,5.38,0,0,1,6.9,0,3.95,3.95,0,0,1,0,6.08Zm3.05-14.84a5.34,5.34,0,0,1,6.89,0,3.94,3.94,0,0,1,0,6.07,5.34,5.34,0,0,1-6.89,0A3.94,3.94,0,0,1,28.18,30.68Zm6.17,14.24a4.22,4.22,0,0,1-5.45,0,3.12,3.12,0,0,1,0-4.8,4.25,4.25,0,0,1,5.45,0,3.1,3.1,0,0,1,0,4.8Zm.77,9.41a5.34,5.34,0,0,1-6.89,0,3.94,3.94,0,0,1,0-6.08,5.34,5.34,0,0,1,6.89,0,3.93,3.93,0,0,1,0,6.08Zm3.06-14.85a5.35,5.35,0,0,1,6.89,0,3.94,3.94,0,0,1,0,6.07,5.34,5.34,0,0,1-6.89,0A3.94,3.94,0,0,1,38.18,39.48Z"/></g></g></svg>