<svg xmlns="http://www.w3.org/2000/svg" viewBox="0 0 1031.03 705.27"><defs><style>.cls-1{fill:#fff;}.cls-2{fill:#95bc11;}.cls-3{fill:#ed1c24;}</style></defs><title>Varlık 7</title><g id="katman_2" data-name="katman 2"><g id="Layer_1" data-name="Layer 1"><path d="M5,210.61H0V62.5A62.57,62.57,0,0,1,62.5,0H210.61V5H62.5A57.56,57.56,0,0,0,5,62.5Z"/><path d="M1021,210.61h-5V62.5A57.56,57.56,0,0,0,958.5,5H810.39V0H958.5A62.57,62.57,0,0,1,1021,62.5Z"/><path d="M210.61,705H62.5A62.57,62.57,0,0,1,0,642.5V494.39H5V642.5A57.56,57.56,0,0,0,62.5,700H210.61Z"/><path d="M968.53,705.27H820.43v-5h148.1a57.57,57.57,0,0,0,57.5-57.5V494.66h5V642.77A62.57,62.57,0,0,1,968.53,705.27Z"/><path class="cls-1" d="M391,338.42h-5v-45A27.53,27.53,0,0,1,413.5,266h45v5h-45a22.52,22.52,0,0,0-22.5,22.5Z"/><path class="cls-1" d="M635,338.42h-5v-45A22.52,22.52,0,0,0,607.5,271h-45v-5h45a27.53,27.53,0,0,1,27.5,27.5Z"/><path class="cls-1" d="M454.48,439.05h-41a27.53,27.53,0,0,1-27.5-27.5v-41h5v41a22.52,22.52,0,0,0,22.5,22.5h41Z"/><path class="cls-1" d="M607.5,439.05h-45v-5h45a22.52,22.52,0,0,0,22.5-22.5v-45h5v45A27.53,27.53,0,0,1,607.5,439.05Z"/><path d="M123.85,80.3H45.67v-20A18.28,18.28,0,0,1,63.94,42.07h59.91Zm-73.18-5h68.18V47.07H63.94A13.28,13.28,0,0,0,50.67,60.34Z"/><path class="cls-2" d="M66.9,70.76H56.47V60.21a8.33,8.33,0,0,1,8.34-8.34H66.9Z"/><path d="M133.5,70.83H118.85V51.54H133.5Zm-9.65-5h4.65V56.54h-4.65Z"/><circle class="cls-3" cx="829.55" cy="61.36" r="19.15"/><path d="M891.52,63.94h-9.34V80h-5.27V40.27h13.16q6.72,0,10.33,3.06t3.62,8.9a10.68,10.68,0,0,1-2,6.47,11.94,11.94,0,0,1-5.58,4.12l9.34,16.87V80h-5.63Zm-9.34-4.28h8.05a9.05,9.05,0,0,0,6.21-2,6.83,6.83,0,0,0,2.31-5.41,7.21,7.21,0,0,0-2.2-5.67c-1.46-1.31-3.58-2-6.34-2h-8Z"/><path d="M933.83,61.65H916.61V75.74h20V80H911.36V40.27h25v4.29H916.61v12.8h17.22Z"/><path d="M972.38,67.41q-.74,6.3-4.65,9.73t-10.42,3.43a14,14,0,0,1-11.29-5q-4.24-5.05-4.24-13.52V58.18a22.7,22.7,0,0,1,2-9.75A14.78,14.78,0,0,1,949.37,42a15.62,15.62,0,0,1,8.41-2.25q6.33,0,10.15,3.53a14.81,14.81,0,0,1,4.45,9.79h-5.27q-.68-4.77-3-6.9A8.92,8.92,0,0,0,957.78,44a9.38,9.38,0,0,0-7.88,3.72q-2.85,3.72-2.85,10.57v3.85q0,6.48,2.7,10.31a8.72,8.72,0,0,0,7.56,3.82c2.91,0,5.15-.66,6.7-2s2.59-3.62,3.1-6.89Z"/><rect class="cls-2" x="71.87" y="51.87" width="10.43" height="18.9"/><rect class="cls-2" x="87.31" y="51.87" width="10.43" height="18.9"/><rect class="cls-2" x="102.75" y="51.87" width="10.43" height="18.9"/><path d="M829,634.34a6.35,6.35,0,0,1-2,4.2,6.6,6.6,0,0,1-4.49,1.47,6,6,0,0,1-4.87-2.17,8.79,8.79,0,0,1-1.83-5.83v-1.65a9.75,9.75,0,0,1,.86-4.2,6.34,6.34,0,0,1,2.42-2.78,6.69,6.69,0,0,1,3.62-1,6.23,6.23,0,0,1,4.38,1.52,6.4,6.4,0,0,1,1.92,4.22h-2.27a5,5,0,0,0-1.28-3,3.84,3.84,0,0,0-2.75-.92,4,4,0,0,0-3.39,1.6,7.36,7.36,0,0,0-1.23,4.56v1.66a7.54,7.54,0,0,0,1.16,4.44,3.76,3.76,0,0,0,3.26,1.65,4.33,4.33,0,0,0,2.89-.86,4.75,4.75,0,0,0,1.34-3Z"/><path d="M838.66,639.78h-2.19V625.27l-4.39,1.61v-2l6.24-2.34h.34Z"/><path d="M829,656.89a6.31,6.31,0,0,1-2,4.2,6.6,6.6,0,0,1-4.49,1.48,6.06,6.06,0,0,1-4.87-2.18,8.76,8.76,0,0,1-1.83-5.83v-1.64a9.77,9.77,0,0,1,.86-4.21,6.39,6.39,0,0,1,2.42-2.78,6.78,6.78,0,0,1,3.62-1,6.23,6.23,0,0,1,4.38,1.52A6.4,6.4,0,0,1,829,650.7h-2.27a5,5,0,0,0-1.28-3,3.89,3.89,0,0,0-2.75-.92,4,4,0,0,0-3.39,1.6,7.36,7.36,0,0,0-1.23,4.56v1.66a7.54,7.54,0,0,0,1.16,4.44,3.76,3.76,0,0,0,3.26,1.65,4.39,4.39,0,0,0,2.89-.85,4.75,4.75,0,0,0,1.34-3Z"/><path d="M842.73,662.33H831.51v-1.56l5.93-6.59a15.31,15.31,0,0,0,1.82-2.43,4.12,4.12,0,0,0,.5-1.94,3.09,3.09,0,0,0-.82-2.2,2.84,2.84,0,0,0-2.16-.86,3.39,3.39,0,0,0-2.53.92,3.55,3.55,0,0,0-.9,2.58h-2.17a5,5,0,0,1,1.52-3.83,5.66,5.66,0,0,1,4.08-1.46,5.47,5.47,0,0,1,3.78,1.25,4.3,4.3,0,0,1,1.38,3.34q0,2.54-3.22,6l-4.59,5h8.6Z"/><rect x="849.83" y="628.17" width="7.33" height="7.33"/><rect x="862.27" y="628.17" width="7.33" height="7.33"/><rect x="874.72" y="628.17" width="7.33" height="7.33"/><rect x="887.16" y="628.17" width="7.33" height="7.33"/><path d="M905.93,629.17v5.33H900.6v-5.33h5.33m1-1H899.6v7.33h7.33v-7.33Z"/><path d="M918.37,629.17v5.33H913v-5.33h5.33m1-1H912v7.33h7.33v-7.33Z"/><rect x="849.83" y="650.08" width="7.33" height="7.33"/><rect x="862.27" y="650.08" width="7.33" height="7.33"/><rect x="874.72" y="650.08" width="7.33" height="7.33"/><rect x="887.16" y="650.08" width="7.33" height="7.33"/><rect x="899.6" y="650.08" width="7.33" height="7.33"/><path d="M918.37,629.17v5.33H913v-5.33h5.33m1-1H912v7.33h7.33v-7.33Z"/><rect x="912.04" y="650.08" width="7.33" height="7.33"/><path d="M930.81,629.17v5.33h-5.33v-5.33h5.33m1-1h-7.33v7.33h7.33v-7.33Z"/><rect x="924.48" y="650.08" width="7.33" height="7.33"/><path d="M943.26,629.17v5.33h-5.34v-5.33h5.34m1-1h-7.34v7.33h7.34v-7.33Z"/><rect x="936.92" y="650.08" width="7.33" height="7.33"/><path d="M955.7,629.17v5.33h-5.34v-5.33h5.34m1-1h-7.34v7.33h7.34v-7.33Z"/><rect x="949.36" y="650.08" width="7.33" height="7.33"/><path d="M968.14,629.17v5.33h-5.33v-5.33h5.33m1-1h-7.33v7.33h7.33v-7.33Z"/><path d="M968.14,651.08v5.34h-5.33v-5.34h5.33m1-1h-7.33v7.34h7.33v-7.34Z"/><rect x="912.04" y="650.08" width="7.33" height="7.33"/><path d="M75.4,645.38q0,8.86-3,13.18t-9.47,4.32q-6.36,0-9.42-4.22t-3.16-12.6v-6.74q0-8.77,3-13t9.5-4.25q6.41,0,9.44,4.1t3.12,12.69Zm-5.05-6.91c0-4.28-.61-7.39-1.81-9.35a6.19,6.19,0,0,0-5.7-2.94,6.11,6.11,0,0,0-5.65,2.93c-1.19,1.94-1.8,4.94-1.83,9v8.08c0,4.29.62,7.47,1.87,9.51a6.17,6.17,0,0,0,5.66,3.07,6.1,6.1,0,0,0,5.56-2.89q1.81-2.9,1.9-9.12Z"/><path d="M106.79,645.38q0,8.86-3,13.18t-9.47,4.32q-6.36,0-9.42-4.22t-3.17-12.6v-6.74q0-8.77,3-13t9.5-4.25q6.42,0,9.45,4.1t3.11,12.69Zm-5.05-6.91c0-4.28-.6-7.39-1.8-9.35a6.2,6.2,0,0,0-5.71-2.94,6.12,6.12,0,0,0-5.65,2.93c-1.18,1.94-1.79,4.94-1.83,9v8.08c0,4.29.63,7.47,1.87,9.51a6.2,6.2,0,0,0,5.67,3.07,6.09,6.09,0,0,0,5.55-2.89c1.21-1.93,1.85-5,1.9-9.12Z"/><path d="M113.62,659.68a3.19,3.19,0,0,1,.77-2.18,3,3,0,0,1,2.34-.87,2.9,2.9,0,0,1,3.17,3,3,3,0,0,1-.81,2.11,3.12,3.12,0,0,1-2.36.84,2.79,2.79,0,0,1-3.11-3Zm0-24.1a3.16,3.16,0,0,1,.78-2.19,3,3,0,0,1,2.34-.87,3.07,3.07,0,0,1,2.36.87,3.13,3.13,0,0,1,.8,2.19,3,3,0,0,1-.8,2.1,3.13,3.13,0,0,1-2.36.84,3,3,0,0,1-2.34-.84A3,3,0,0,1,113.64,635.58Z"/><path d="M151.73,645.38q0,8.86-3,13.18t-9.47,4.32q-6.37,0-9.42-4.22t-3.17-12.6v-6.74q0-8.77,3-13t9.5-4.25q6.42,0,9.45,4.1t3.11,12.69Zm-5-6.91c0-4.28-.6-7.39-1.8-9.35a6.22,6.22,0,0,0-5.71-2.94,6.12,6.12,0,0,0-5.65,2.93c-1.18,1.94-1.79,4.94-1.83,9v8.08c0,4.29.62,7.47,1.87,9.51a6.19,6.19,0,0,0,5.67,3.07,6.09,6.09,0,0,0,5.55-2.89q1.82-2.9,1.9-9.12Z"/><path d="M177.55,644.86a12.4,12.4,0,0,1-3.78,3A10.3,10.3,0,0,1,169,649a10.58,10.58,0,0,1-6-1.7,11,11,0,0,1-3.94-4.76,16.23,16.23,0,0,1-1.39-6.79,16.57,16.57,0,0,1,1.51-7.18,11.15,11.15,0,0,1,4.3-4.88,12.25,12.25,0,0,1,6.5-1.69,11.07,11.07,0,0,1,9.29,4.4q3.41,4.41,3.4,12v1.47q0,11.61-4.58,16.94t-13.85,5.48h-1v-4.29h1.07q6.24-.11,9.61-3.25T177.55,644.86Zm-7.78,0a7.8,7.8,0,0,0,4.69-1.56,9.2,9.2,0,0,0,3.12-3.85v-2a14,14,0,0,0-2.15-8.08,6.6,6.6,0,0,0-10.82-.56,10.58,10.58,0,0,0-2,6.73,10.89,10.89,0,0,0,2,6.7A6.17,6.17,0,0,0,169.77,644.86Z"/><path d="M190,659.68a3.15,3.15,0,0,1,.78-2.18,3,3,0,0,1,2.33-.87,3,3,0,0,1,2.36.87,3.08,3.08,0,0,1,.81,2.18,3,3,0,0,1-.81,2.11,3.1,3.1,0,0,1-2.36.84,2.8,2.8,0,0,1-3.11-3Zm0-24.1a3.2,3.2,0,0,1,.77-2.19,3,3,0,0,1,2.34-.87,3.06,3.06,0,0,1,2.36.87,3.09,3.09,0,0,1,.81,2.19,2.94,2.94,0,0,1-.81,2.1,3.12,3.12,0,0,1-2.36.84,2.79,2.79,0,0,1-3.11-2.94Z"/><path d="M228.06,645.38q0,8.86-3,13.18t-9.47,4.32q-6.36,0-9.42-4.22T203,646.06v-6.74q0-8.77,3-13t9.5-4.25q6.42,0,9.45,4.1t3.11,12.69ZM223,638.47c0-4.28-.6-7.39-1.8-9.35a6.21,6.21,0,0,0-5.71-2.94,6.12,6.12,0,0,0-5.65,2.93c-1.18,1.94-1.79,4.94-1.83,9v8.08c0,4.29.63,7.47,1.87,9.51a6.2,6.2,0,0,0,5.67,3.07,6.09,6.09,0,0,0,5.55-2.89c1.21-1.93,1.85-5,1.9-9.12Z"/><path d="M258.64,633a9.25,9.25,0,0,1-1.57,5.29,10.69,10.69,0,0,1-4.25,3.63,11.37,11.37,0,0,1,4.93,3.91,9.82,9.82,0,0,1,1.81,5.81,10.4,10.4,0,0,1-3.48,8.22,15.25,15.25,0,0,1-18.34,0,10.47,10.47,0,0,1-3.46-8.21,10.06,10.06,0,0,1,1.77-5.81,10.88,10.88,0,0,1,4.87-3.93,10.45,10.45,0,0,1-4.18-3.64,9.32,9.32,0,0,1-1.53-5.26,10.32,10.32,0,0,1,3.22-8,13.71,13.71,0,0,1,17,0A10.27,10.27,0,0,1,258.64,633Zm-4.13,18.53a7.32,7.32,0,0,0-2.11-5.43,7.5,7.5,0,0,0-5.53-2.1,7.1,7.1,0,0,0-7.53,7.53,7.07,7.07,0,0,0,2,5.33,9,9,0,0,0,11.15,0A7,7,0,0,0,254.51,651.49Zm-7.58-25.31a6.5,6.5,0,0,0-4.82,1.85,7.61,7.61,0,0,0,0,9.91,7.21,7.21,0,0,0,9.69,0,7.45,7.45,0,0,0-.07-9.84A6.4,6.4,0,0,0,246.93,626.18Z"/><path d="M266.28,659.68a3.15,3.15,0,0,1,.78-2.18,3,3,0,0,1,2.33-.87,3.08,3.08,0,0,1,2.37.87,3.12,3.12,0,0,1,.8,2.18,3,3,0,0,1-.8,2.11,3.14,3.14,0,0,1-2.37.84,2.8,2.8,0,0,1-3.11-3Zm0-24.1a3.16,3.16,0,0,1,.78-2.19,3,3,0,0,1,2.33-.87,3,3,0,0,1,2.36.87,3.09,3.09,0,0,1,.81,2.19,2.94,2.94,0,0,1-.81,2.1,3.1,3.1,0,0,1-2.36.84,2.8,2.8,0,0,1-3.11-2.94Z"/><path d="M305.13,625.42l-16.46,36.91h-5.3l16.41-35.6H278.27v-4.15h26.86Z"/><path d="M330.68,622.55v4.29h-.92a13.32,13.32,0,0,0-9.4,3.49q-3.5,3.39-4,9.53a10.8,10.8,0,0,1,8.58-3.6,10.3,10.3,0,0,1,8.28,3.66,14.07,14.07,0,0,1,3.1,9.44q0,6.15-3.34,9.83a11.51,11.51,0,0,1-9,3.69,11.35,11.35,0,0,1-9.26-4.38q-3.54-4.39-3.55-11.29v-1.94q0-11,4.69-16.78t13.93-5.94Zm-6.63,17.91a8.06,8.06,0,0,0-4.78,1.56,8.21,8.21,0,0,0-3,3.9v1.86a13.06,13.06,0,0,0,2.21,7.92,6.65,6.65,0,0,0,5.52,3,6.43,6.43,0,0,0,5.36-2.51,12.09,12.09,0,0,0,0-13.2A6.36,6.36,0,0,0,324.05,640.46Z"/><rect class="cls-1" x="491.53" y="350" width="37.95" height="5"/><rect class="cls-1" x="508" y="333.53" width="5" height="37.95"/></g></g></svg>