<svg xmlns="http://www.w3.org/2000/svg" viewBox="0 0 59 66.87"><defs><style>.cls-1{fill:#ed1c24;}</style></defs><title>Varlık 29-80</title><g id="katman_2" data-name="katman 2"><g id="Layer_1" data-name="Layer 1"><path d="M57.07,27.76,31,1.68a3.92,3.92,0,1,0-5.55,5.54L51.53,33.31a3.92,3.92,0,0,0,5.54-5.55Z"/><path d="M23.51,10.83l-.2,1A42.07,42.07,0,0,1,14,30.63L28.21,44.82a41.91,41.91,0,0,1,18.73-9.38l1-.2Z"/><path d="M11.42,33.57l-9.7,9.69a5.88,5.88,0,0,0,0,8.31l5.54,5.55a5.89,5.89,0,0,0,8.32,0l9.69-9.7ZM12.81,48.8A2,2,0,0,1,10,46l2.77-2.77A2,2,0,1,1,15.58,46Z"/><path class="cls-1" d="M33.45,58.16l2.67-2.67a5.88,5.88,0,0,0,0-8.31l-2-2A36.37,36.37,0,0,0,31,47.59L33.35,50a2,2,0,0,1,0,2.77l-2.71,2.71-4-3.86-5.54,5.55L30,65.73a3.92,3.92,0,0,0,5.53-5.55Z"/><path class="cls-1" d="M41.37,0a2,2,0,0,0-2,2V5.88a2,2,0,1,0,3.92,0V2A2,2,0,0,0,41.37,0Z"/><path class="cls-1" d="M57,15.67H53.12a2,2,0,0,0,0,3.92H57a2,2,0,1,0,0-3.92Z"/><path class="cls-1" d="M54.51,4.49a2,2,0,0,0-2.77,0L47.82,8.41a2,2,0,1,0,2.77,2.77l3.92-3.92A2,2,0,0,0,54.51,4.49Z"/></g></g></svg>