<svg xmlns="http://www.w3.org/2000/svg" viewBox="0 0 59 59.01"><defs><style>.cls-1{fill:red;}</style></defs><title>Varlık 30-80</title><g id="katman_2" data-name="katman 2"><g id="Layer_1" data-name="Layer 1"><path d="M52.09,31.66V24.33h1.72a1.73,1.73,0,0,0,1.73-1.73V15.8a5.18,5.18,0,0,0-5.18-5.18H44.07A7,7,0,0,0,37.71,0a7,7,0,0,0-5.84,3.66L29.32,8.38,26.78,3.66a7,7,0,1,0-12.2,7H8.64A5.18,5.18,0,0,0,3.46,15.8v6.8a1.72,1.72,0,0,0,1.73,1.73H6.91V34.82H1.73A1.72,1.72,0,0,0,0,36.54V57.29A1.72,1.72,0,0,0,1.73,59H8.64a1.72,1.72,0,0,0,1.7-1.41A41.16,41.16,0,0,0,21,59H36.41a12.13,12.13,0,0,0,9.66-4.81S57.93,39.7,58,39.65a5.18,5.18,0,0,0-5.87-8ZM6.91,43.46v12.1H3.46V38.27H6.91ZM50.36,14.07a1.74,1.74,0,0,1,1.73,1.73v5.07H34.69v-6.8ZM48.63,24.33V34.46L41.39,42a5.21,5.21,0,0,0-5-3.72H34.69V24.33Zm-13.72-19a3.56,3.56,0,1,1,6.25,3.41A3.51,3.51,0,0,1,38,10.62h-6Zm-7.14,8.75h3.46v24.2h-2.8a3.67,3.67,0,0,1-.66-.05V14.07ZM20.61,3.46h.17a3.54,3.54,0,0,1,3,1.85l2.86,5.31h-6a3.53,3.53,0,0,1-3.13-1.89A3.57,3.57,0,0,1,20.61,3.46ZM6.91,20.87V15.8a1.74,1.74,0,0,1,1.73-1.73H24.31v6.8Zm17.4,3.46v12a12.23,12.23,0,0,0-13.94,0v-12ZM55.22,37.55,43.37,52l0,.06a8.69,8.69,0,0,1-6.92,3.46H21A37.27,37.27,0,0,1,10.37,54V40.78l1.21-1.06a8.75,8.75,0,0,1,11.53,0,8.08,8.08,0,0,0,5.32,2h8a1.73,1.73,0,1,1,0,3.46H24.13a1.73,1.73,0,1,0,0,3.45H37.57A5.19,5.19,0,0,0,41.36,47L52.53,35.39h0a1.73,1.73,0,0,1,2.67,2.18Z"/><path class="cls-1" d="M48.63,33.56a11.92,11.92,0,0,1,3.46-2.1V24.33h1.72a1.72,1.72,0,0,0,1.73-1.73V15.8a5.18,5.18,0,0,0-5.18-5.18H44.07A7,7,0,0,0,37.71,0a7,7,0,0,0-5.84,3.66L29.32,8.38,26.78,3.66a7,7,0,1,0-12.2,7H8.64A5.18,5.18,0,0,0,3.46,15.8v6.8a1.72,1.72,0,0,0,1.73,1.73H6.91V34.82H5.62l0,.1h4.7V24.33H24.31v12a14.6,14.6,0,0,0,2.05,1.13,11.81,11.81,0,0,0,1.41.5V14.07h3.46V38.26h3.46V24.33H48.63ZM24.31,20.87H6.91V15.8a1.74,1.74,0,0,1,1.73-1.73H24.31Zm-3.7-10.25a3.53,3.53,0,0,1-3.13-1.89,3.57,3.57,0,0,1,3.13-5.27h.17a3.54,3.54,0,0,1,3,1.85l2.86,5.31Zm11.44,0,2.86-5.3a3.56,3.56,0,1,1,6.25,3.41A3.51,3.51,0,0,1,38,10.62Zm2.64,10.25v-6.8H50.36a1.74,1.74,0,0,1,1.73,1.73v5.07Z"/></g></g></svg>