<svg xmlns="http://www.w3.org/2000/svg" viewBox="0 0 59 59"><defs><style>.cls-1{fill:red;}</style></defs><title>Varlık 31-80</title><g id="katman_2" data-name="katman 2"><g id="Layer_1" data-name="Layer 1"><g id="timelapse"><path d="M41.89,17.11A17,17,0,0,0,29.5,11.8V29.5L17.11,41.89a18,18,0,0,0,25.07,0A17.36,17.36,0,0,0,41.89,17.11ZM29.5,0A29.5,29.5,0,1,0,59,29.5,29.58,29.58,0,0,0,29.5,0Zm0,53.1A23.6,23.6,0,1,1,53.1,29.5,23.67,23.67,0,0,1,29.5,53.1Z"/></g><g id="timelapse-2" data-name="timelapse"><path class="cls-1" d="M42.19,41.89a17.37,17.37,0,0,0-.3-24.78A17,17,0,0,0,29.5,11.8V29.5L17.11,41.89A18,18,0,0,0,42.19,41.89Z"/></g></g></g></svg>