<svg xmlns="http://www.w3.org/2000/svg" viewBox="0 0 59.83 59.4"><defs><style>.cls-1{fill:#ed1c24;}</style></defs><title>Varlık 6</title><g id="katman_2" data-name="katman 2"><g id="Layer_1" data-name="Layer 1"><g id="Layer_2" data-name="Layer 2"><path d="M36,54.28c-.49.12-1,.23-1.5.32a2.42,2.42,0,0,0-1.92,2.81,2.41,2.41,0,0,0,2.8,1.92c.59-.11,1.19-.24,1.78-.38A2.41,2.41,0,0,0,36,54.28Z"/><path d="M53.75,22a2.38,2.38,0,0,0,.89,1.21,2.45,2.45,0,0,0,2.15.32,2.4,2.4,0,0,0,1.52-3c-.19-.58-.4-1.15-.62-1.72a2.41,2.41,0,0,0-4.47,1.79C53.41,21.07,53.59,21.56,53.75,22Z"/><path class="cls-1" d="M43.77,50.84c-.42.28-.86.56-1.3.81a2.4,2.4,0,0,0-.88,3.28,2.36,2.36,0,0,0,.7.77,2.42,2.42,0,0,0,2.59.12c.52-.31,1-.63,1.55-1a2.41,2.41,0,0,0-2.66-4Z"/><path class="cls-1" d="M59.81,28.76A2.41,2.41,0,0,0,55,29c0,.5,0,1,0,1.53a2.42,2.42,0,0,0,1,2,2.41,2.41,0,0,0,3.78-1.92C59.84,30,59.83,29.36,59.81,28.76Z"/><path d="M53.35,44.52A2.39,2.39,0,0,0,50,45c-.31.4-.63.81-1,1.19a2.41,2.41,0,0,0,.27,3.39l.18.14a2.39,2.39,0,0,0,3.21-.41c.4-.46.78-.94,1.14-1.43A2.4,2.4,0,0,0,53.35,44.52Z"/><path d="M56.89,35.82a2.41,2.41,0,0,0-3,1.58c-.15.48-.32,1-.5,1.45a2.41,2.41,0,0,0,4.5,1.71c.21-.57.41-1.15.59-1.72A2.4,2.4,0,0,0,56.89,35.82Z"/><path d="M25.47,54.62a24.27,24.27,0,0,1-6.17-2l-.07,0c-.46-.22-.92-.45-1.37-.7h0a26.39,26.39,0,0,1-2.39-1.5,25.1,25.1,0,0,1,.11-41.11l.08-.06A25.15,25.15,0,0,1,43.83,9L42,11.75c-.52.76-.2,1.31.71,1.23l8.17-.73A1.35,1.35,0,0,0,52,10.49l-2.19-7.9c-.24-.89-.87-1-1.39-.24L46.57,5.08A29.67,29.67,0,0,0,24.81.45q-1.15.19-2.28.48h0l-.08,0A29.67,29.67,0,0,0,6,12a1.47,1.47,0,0,0-.1.13c-.14.18-.27.37-.41.56s-.43.62-.63.94l-.07.11A29.64,29.64,0,0,0,0,31.21v.07c0,.6.08,1.21.14,1.81a.5.5,0,0,0,0,.12c.07.6.15,1.21.26,1.82A29.61,29.61,0,0,0,8.82,51.12l0,0h0a30.49,30.49,0,0,0,3.83,3.2,29.59,29.59,0,0,0,11.93,5,2.41,2.41,0,0,0,.85-4.74Z"/><path class="cls-1" d="M28.44,10.48a2,2,0,0,0-2,1.95V31.82L44.22,41A1.94,1.94,0,1,0,46,37.53L30.38,29.45v-17A2,2,0,0,0,28.44,10.48Z"/></g></g></g></svg>