<svg xmlns="http://www.w3.org/2000/svg" viewBox="0 0 255.63 32.79"><defs><style>.cls-1{fill:none;}.cls-2{fill:#ed1c24;}.cls-3{fill:#fff;}</style></defs><title>Varlık 2</title><g id="katman_2" data-name="katman 2"><g id="Layer_1" data-name="Layer 1"><path class="cls-1" d="M11.32,17.73h0L4.15,3.07h0l7.17,14.66Z"/><polygon class="cls-1" points="23.1 3.07 23.09 3.07 10.29 29.09 9.98 29.73 40.42 29.73 40.42 3.07 23.15 3.07 23.1 3.07"/><path class="cls-1" d="M51.17,5.47a.88.88,0,0,0-.71,0l-7,4V23.26l7,4a.69.69,0,0,0,.78,0,.85.85,0,0,0,.31-.63V6.13A.72.72,0,0,0,51.17,5.47Z"/><path class="cls-2" d="M11.32,17.73a.58.58,0,0,0,1,0L19.28,3.4s.08-.17.17-.33H4.15l7.17,14.66Z"/><path class="cls-3" d="M52.75,2.85h0a3.75,3.75,0,0,0-3.79,0L43.49,6V3a3,3,0,0,0-3-3h-38C1.33.08.24.34,0,1.4A1.85,1.85,0,0,0,.22,2.6L9.82,22a.59.59,0,0,1,0,.52l-2.89,6-.95,2a1.58,1.58,0,0,0,1.36,2.32H40.45a3,3,0,0,0,3-3v-3L49,30a3.79,3.79,0,0,0,5.68-3.28V6.13A3.75,3.75,0,0,0,52.75,2.85Zm-48.6.22h15.3c-.09.16-.15.29-.17.33L12.36,17.73a.58.58,0,0,1-1,0h0ZM40.43,29.73H10l.31-.64,12.8-26H40.43Zm11.15-3.09a.85.85,0,0,1-.31.63.69.69,0,0,1-.78,0l-7-4V9.54l7-4a.88.88,0,0,1,.71,0,.72.72,0,0,1,.41.66Z"/><path class="cls-3" d="M74.48,18.48,65.84,7c-1-1.36,1.23-2.63,2.15-1.26l7.72,10.56L83.54,5.74c.85-1.3,3-.21,2,1.23L77,18.48v7.65a1.23,1.23,0,0,1-1.26,1.27,1.19,1.19,0,0,1-1.27-1.27Z"/><path class="cls-3" d="M89.55,21.52l-2.76,5.4c-.62,1.26-2.87.37-2.26-1L94.85,5.6a1.27,1.27,0,0,1,2.22,0l10.28,20.22c.89,1.47-1.64,2.33-2.29,1l-2.66-5.3ZM96,8.61l-5.4,10.76h10.76Z"/><path class="cls-3" d="M115.11,18.48,106.47,7c-1-1.36,1.23-2.63,2.15-1.26l7.72,10.56,7.82-10.59c.86-1.3,3-.21,2,1.23l-8.57,11.51v7.65a1.24,1.24,0,0,1-1.27,1.27,1.18,1.18,0,0,1-1.26-1.27Z"/><path class="cls-3" d="M129.6,6a1.28,1.28,0,0,1,2.56,0V26.41a1.28,1.28,0,0,1-2.56,0Z"/><path class="cls-3" d="M152.76,6.35c0-1.43,2.6-1.5,2.6,0V26c0,1.71-2.36,1.88-3.08.68L139.5,9.53l.28,4.71V26.3a1.3,1.3,0,0,1-2.6,0V6.73c0-1.71,1.91-2,2.77-.72L153.1,23.6l-.34-5.15Z"/><path class="cls-3" d="M161.64,27.26a1.55,1.55,0,0,1-1.57-1.47V7a1.52,1.52,0,0,1,1.57-1.44h7.45c6.8,0,10.18,5.43,10.18,10.87s-3.38,10.86-10.18,10.86Zm.89-2.22h6.56c5.13,0,7.69-4.34,7.69-8.64s-2.56-8.68-7.69-8.68h-6.56Z"/><path class="cls-3" d="M185.94,21.52l-2.77,5.4c-.62,1.26-2.87.37-2.25-1L191.23,5.6A1.23,1.23,0,0,1,192.36,5a1.21,1.21,0,0,1,1.09.65l10.29,20.22c.88,1.47-1.64,2.33-2.29,1l-2.67-5.3Zm6.42-12.91L187,19.37h10.76Z"/><path class="cls-2" d="M213.17,25a2.23,2.23,0,0,1-2.39,2.33,2.34,2.34,0,1,1,0-4.67A2.23,2.23,0,0,1,213.17,25Z"/><path class="cls-3" d="M230.13,5.5a1.18,1.18,0,1,1,0,2.35h-7.61c0,6.15,0,12.41,0,18.56a1.26,1.26,0,0,1-1.3,1.26A1.21,1.21,0,0,1,220,26.41V7.85h-7.58a1.18,1.18,0,1,1,0-2.35Z"/><path class="cls-3" d="M233.45,6.9c-.65-1.47,1.71-2.43,2.39-1l8.78,17.49L253.2,6a1.26,1.26,0,0,1,2.35.89l-9.84,19.92a1.23,1.23,0,0,1-2.29-.11Z"/></g></g></svg>